<svg width="50" height="50" viewBox="0 0 50 50" fill="none" xmlns="http://www.w3.org/2000/svg">
<circle cx="25" cy="25" r="24.5" stroke="#859649"/>
<path d="M18.8897 36.4138H31.1103C33.2552 36.4138 35 34.669 35 32.5241V20.8966C35 20.5172 34.6897 20.2069 34.3103 20.2069H30.1724V19.1724C30.1724 16.3207 27.8517 14 25 14C22.1483 14 19.8276 16.3207 19.8276 19.1724V20.2069H15.6897C15.3103 20.2069 15 20.5172 15 20.8966V32.5241C15 34.669 16.7448 36.4138 18.8897 36.4138ZM21.2069 19.1724C21.2069 17.0793 22.9069 15.3793 25 15.3793C27.0931 15.3793 28.7931 17.0793 28.7931 19.1724V20.2069H21.2069V19.1724ZM16.3793 21.5862H19.8276V23.3103C19.8276 23.6897 20.1379 24 20.5172 24C20.8966 24 21.2069 23.6897 21.2069 23.3103V21.5862H28.7931V23.3103C28.7931 23.6897 29.1034 24 29.4828 24C29.8621 24 30.1724 23.6897 30.1724 23.3103V21.5862H33.6207V32.5241C33.6207 33.9069 32.4931 35.0345 31.1103 35.0345H18.8897C17.5069 35.0345 16.3793 33.9069 16.3793 32.5241V21.5862Z" fill="#859649"/>
</svg>
