<svg width="50" height="50" viewBox="0 0 50 50" fill="none" xmlns="http://www.w3.org/2000/svg">
<circle cx="25" cy="25" r="24.5" stroke="#FE6402"/>
<g clip-path="url(#clip0_2004_4)">
<path d="M15.625 18.5257H25.1408C25.4276 19.8312 26.5934 20.8112 27.9837 20.8112C29.374 20.8112 30.5398 19.8312 30.8266 18.5257H34.375C34.7202 18.5257 35 18.2459 35 17.9007C35 17.5556 34.7202 17.2757 34.375 17.2757H30.8263C30.5389 15.971 29.3716 14.9903 27.9837 14.9903C26.5951 14.9903 25.4283 15.9708 25.1411 17.2757H15.625C15.2798 17.2757 15 17.5556 15 17.9007C15 18.2459 15.2798 18.5257 15.625 18.5257ZM26.3233 17.9024C26.3233 17.9002 26.3234 17.8979 26.3234 17.8957C26.3261 16.9829 27.0709 16.2403 27.9837 16.2403C28.8952 16.2403 29.6401 16.9819 29.644 17.8942L29.6441 17.9034C29.6427 18.8177 28.8984 19.5612 27.9837 19.5612C27.0694 19.5612 26.3254 18.8185 26.3233 17.9047L26.3233 17.9024ZM34.375 31.4742H30.8263C30.5389 30.1695 29.3716 29.1888 27.9837 29.1888C26.5951 29.1888 25.4283 30.1693 25.1411 31.4742H15.625C15.2798 31.4742 15 31.754 15 32.0992C15 32.4444 15.2798 32.7242 15.625 32.7242H25.1408C25.4276 34.0296 26.5934 35.0097 27.9837 35.0097C29.374 35.0097 30.5398 34.0296 30.8266 32.7242H34.375C34.7202 32.7242 35 32.4444 35 32.0992C35 31.754 34.7202 31.4742 34.375 31.4742ZM27.9837 33.7597C27.0694 33.7597 26.3254 33.0169 26.3233 32.1031L26.3233 32.1009C26.3233 32.0986 26.3234 32.0964 26.3234 32.0941C26.3261 31.1814 27.0709 30.4388 27.9837 30.4388C28.8952 30.4388 29.6401 31.1803 29.644 32.0926L29.6441 32.1018C29.6428 33.0162 28.8985 33.7597 27.9837 33.7597ZM34.375 24.375H24.8592C24.5724 23.0696 23.4066 22.0896 22.0163 22.0896C20.626 22.0896 19.4602 23.0696 19.1734 24.375H15.625C15.2798 24.375 15 24.6548 15 25C15 25.3452 15.2798 25.625 15.625 25.625H19.1737C19.4611 26.9297 20.6284 27.9104 22.0163 27.9104C23.4049 27.9104 24.5717 26.9299 24.8589 25.625H34.375C34.7202 25.625 35 25.3452 35 25C35 24.6548 34.7202 24.375 34.375 24.375ZM23.6767 24.9984C23.6767 25.0006 23.6766 25.0028 23.6766 25.0051C23.6739 25.9178 22.9291 26.6604 22.0163 26.6604C21.1048 26.6604 20.3599 25.9189 20.356 25.0066L20.3559 24.9974C20.3572 24.083 21.1016 23.3396 22.0163 23.3396C22.9306 23.3396 23.6746 24.0823 23.6767 24.9961L23.6767 24.9984Z" fill="#FE6402"/>
</g>
<defs>
<clipPath id="clip0_2004_4">
<rect width="20" height="20" fill="white" transform="translate(15 15)"/>
</clipPath>
</defs>
</svg>
