<svg width="50" height="50" viewBox="0 0 50 50" fill="none" xmlns="http://www.w3.org/2000/svg">
<circle cx="25" cy="25" r="24.5" stroke="#859649"/>
<path d="M34.8301 34.1163L29.2137 28.4683C30.6034 26.8852 31.323 24.8236 31.2203 22.7196C31.1177 20.6155 30.2008 18.6338 28.6637 17.1934C27.1265 15.753 25.0894 14.9668 22.9831 15.0011C20.8768 15.0353 18.8664 15.8873 17.3768 17.3768C15.8873 18.8664 15.0353 20.8768 15.0011 22.9831C14.9668 25.0894 15.753 27.1265 17.1934 28.6637C18.6338 30.2008 20.6155 31.1177 22.7196 31.2203C24.8236 31.323 26.8852 30.6034 28.4683 29.2137L34.1163 34.8511C34.1634 34.9013 34.2203 34.9414 34.2835 34.9687C34.3467 34.9961 34.4148 35.0102 34.4837 35.0102C34.5526 35.0102 34.6207 34.9961 34.6839 34.9687C34.7471 34.9414 34.804 34.9013 34.8511 34.8511C34.9 34.8026 34.9384 34.7445 34.964 34.6806C34.9896 34.6166 35.0018 34.548 34.9998 34.4792C34.9978 34.4103 34.9818 34.3425 34.9526 34.2801C34.9234 34.2177 34.8817 34.1619 34.8301 34.1163ZM23.1248 30.1795C21.7337 30.1795 20.3738 29.767 19.2171 28.9941C18.0605 28.2213 17.1589 27.1227 16.6266 25.8375C16.0942 24.5523 15.9549 23.138 16.2263 21.7736C16.4977 20.4092 17.1676 19.156 18.1513 18.1723C19.135 17.1886 20.3882 16.5187 21.7526 16.2473C23.117 15.9759 24.5313 16.1152 25.8165 16.6476C27.1017 17.1799 28.2003 18.0814 28.9731 19.2381C29.746 20.3948 30.1585 21.7547 30.1585 23.1458C30.1557 25.0104 29.4138 26.7979 28.0953 28.1163C26.7769 29.4348 24.9894 30.1767 23.1248 30.1795Z" fill="#859649"/>
</svg>
